<svg width="800" height="600" xmlns="http://www.w3.org/2000/svg">
 <g>
  <title>Layer 1</title>
  <g stroke="null" id="svg_5">
   <g stroke="null" id="svg_6">
    <g stroke="null" fill="#fff" transform="matrix(13.3517 0 0 12.9775 1266.48 333.507)" featureKey="monogramFeature-0" id="svg_4">
     <path stroke="#fff" fill="#000" d="m-90.48275,-10.13023q0.3,0 0.51,0.21t0.21,0.51l0,1.46q0,0.3 -0.21,0.51t-0.51,0.21l-2.06,0q-0.28,0 -0.49,-0.21t-0.21,-0.51l0,-1.46q0,-0.3 0.21,-0.51t0.49,-0.21l2.06,0zm8.94,0q0.28,0 0.49,0.21t0.21,0.51l0,1.46q0,0.3 -0.21,0.51t-0.49,0.21l-4.02,0l0,11.36q0,0.28 -0.21,0.49t-0.49,0.21l-1.54,0q-0.3,0 -0.51,-0.21t-0.21,-0.49l0,-13.54q0,-0.3 0.21,-0.51t0.51,-0.21l6.26,0z" id="svg_7"/>
    </g>
    <g stroke="null" fill="#fff" transform="matrix(8.56398 0 0 8.32392 1374.79 408.591)" featureKey="q4o0QG-0" id="svg_3">
     <path stroke="#fff" fill="#000" d="m-137.58728,-18.58888q3.28,0 5.38,2.2q2.06,2.16 2.06,5.3t-2.06,5.3q-2.1,2.2 -5.38,2.2t-5.38,-2.2q-2.06,-2.16 -2.06,-5.3t2.06,-5.3q2.1,-2.2 5.38,-2.2zm0,12.14q2.06,0 3.32,-1.32q1.22,-1.28 1.22,-3.31t-1.24,-3.34t-3.3,-1.31t-3.3,1.31t-1.24,3.34t1.22,3.31q1.26,1.32 3.32,1.32zm22.254,-12.14q0.28,0 0.49,0.21t0.21,0.49l0,13.4q0,0.28 -0.21,0.49t-0.49,0.21l-1.52,0q-0.3,0 -0.5,-0.21t-0.2,-0.49l0,-9.04l-3.7,4.76q-0.22,0.26 -0.56,0.26l0,0q-0.16,0 -0.32,-0.07t-0.24,-0.21l-6.56,-8.68q-0.12,-0.14 -0.14,-0.35t0.08,-0.38t0.26,-0.28t0.36,-0.11l1.76,0q0.34,0 0.56,0.28l4.24,5.6l4.14,-5.6q0.22,-0.28 0.58,-0.28l1.76,0zm-11.52,9.7q0.28,0 0.49,0.2t0.21,0.5l0,3.7q0,0.28 -0.21,0.49t-0.49,0.21l-1.52,0q-0.28,0 -0.49,-0.21t-0.21,-0.49l0,-3.7q0,-0.3 0.21,-0.5t0.49,-0.2l1.52,0zm20.734,-9.7q3.28,0 5.38,2.2q2.06,2.16 2.06,5.3t-2.06,5.3q-2.1,2.2 -5.38,2.2t-5.38,-2.2q-2.06,-2.16 -2.06,-5.3t2.06,-5.3q2.1,-2.2 5.38,-2.2zm0,12.14q2.06,0 3.32,-1.32q1.22,-1.28 1.22,-3.31t-1.24,-3.34t-3.3,-1.31t-3.3,1.31t-1.24,3.34t1.22,3.31q1.26,1.32 3.32,1.32zm15.114,-12.14q3.28,0 5.38,2.2q2.06,2.16 2.06,5.3t-2.06,5.3q-2.1,2.2 -5.38,2.2t-5.38,-2.2q-2.06,-2.16 -2.06,-5.3t2.06,-5.3q2.1,-2.2 5.38,-2.2zm0,12.14q2.06,0 3.32,-1.32q1.22,-1.28 1.22,-3.31t-1.24,-3.34t-3.3,-1.31t-3.3,1.31t-1.24,3.34t1.22,3.31q1.26,1.32 3.32,1.32zm20.674,-12.14q0.28,0 0.49,0.21t0.21,0.49l0,13.28q0,0.28 -0.21,0.49t-0.49,0.21l-1.76,0q-0.34,0 -0.56,-0.28l-6.94,-9.5l0,9.08q0,0.28 -0.21,0.49t-0.49,0.21l-1.5,0q-0.28,0 -0.49,-0.21t-0.21,-0.49l0,-13.28q0,-0.28 0.21,-0.49t0.49,-0.21l1.74,0q0.16,0 0.32,0.07t0.24,0.21l6.96,9.46l0,-9.04q0,-0.28 0.2,-0.49t0.48,-0.21l1.52,0z" id="svg_8"/>
    </g>
    <g stroke="null" fill="#fff" transform="matrix(0.735871 0 0 0.715243 1508.56 579.905)" featureKey="sloganFeature-0" id="svg_2">
     <path stroke="#fff" fill="#000" d="m-1696.34946,-254.82482l0,-2.82c0.24,0.06 0.54,0.12 0.88,0.16c0.34,0.06 0.7,0.1 1.08,0.12s0.76,0.04 1.16,0.06s0.78,0.04 1.12,0.04c0.94,0 1.6,-0.06 2,-0.16c0.38,-0.1 0.58,-0.28 0.58,-0.56c0,-0.24 -0.18,-0.42 -0.36,-0.56c-0.66,-0.44 -1.44,-0.62 -2.22,-0.8c-2.2,-0.44 -4.22,-1.32 -4.22,-3.84c0,-2.98 2.82,-3.68 5.24,-3.68c1.34,0 2.7,0.14 4,0.46l0,2.82c-0.2,-0.06 -0.46,-0.1 -0.78,-0.16c-0.34,-0.04 -0.68,-0.08 -1.06,-0.12c-0.78,-0.08 -1.52,-0.12 -2.3,-0.12c-0.44,0 -1.36,0 -1.78,0.16c-0.28,0.1 -0.46,0.22 -0.46,0.54c0,0.16 0.04,0.3 0.12,0.42c0.08,0.14 0.22,0.24 0.4,0.34c0.54,0.3 1.24,0.48 1.84,0.62c0.5,0.12 1,0.26 1.52,0.4c1.76,0.48 2.92,1.46 2.92,3.34c0,3.1 -3.08,3.76 -5.56,3.76c-1.36,0 -2.78,-0.1 -4.12,-0.42zm16.996,-11.94l10.2,0l0,2.78l-3.6,0l0,9.46l-3,0l0,-9.46l-3.6,0l0,-2.78zm21.136,2.82l0,2.92l2.8,0c0.92,0 1.46,-0.54 1.46,-1.46s-0.54,-1.46 -1.46,-1.46l-2.8,0zm4.54,4.9c0.56,0.76 1.12,1.52 1.7,2.26c0.56,0.74 1.12,1.5 1.68,2.26l-3.66,0c-0.72,-0.96 -1.42,-1.92 -2.12,-2.88c-0.7,-0.94 -1.42,-1.9 -2.14,-2.86l0,5.74l-3,0l0,-12.24l5.8,0c2.28,0 4.22,1.74 4.22,4.04c0,1.62 -1,3.04 -2.48,3.68zm18.456,-7.72l3,0l0,7.24c0,3.18 -2.28,5.1 -5.3,5.1c-3.1,0 -5.3,-2.04 -5.3,-5.1l0,-7.24l3,0l0,7.24c0,1.44 0.86,2.32 2.3,2.32c1.48,0 2.3,-0.86 2.3,-2.32l0,-7.24zm21.096,8.82l0,3.08c-1.24,0.34 -2.48,0.48 -3.76,0.48c-3.76,0 -6.28,-2.58 -6.28,-6.24c0,-3.76 2.62,-6.24 6.26,-6.24c1.26,0 2.58,0.1 3.78,0.48l0,3.08c-0.98,-0.48 -2.52,-0.66 -3.6,-0.66c-2.44,0 -3.44,1 -3.44,3.32c0,2.46 1.18,3.36 3.46,3.36c1.02,0 2.68,-0.16 3.58,-0.66zm7.396,-8.82l10.2,0l0,2.78l-3.6,0l0,9.46l-3,0l0,-9.46l-3.6,0l0,-2.78zm25.576,0l3,0l0,7.24c0,3.18 -2.28,5.1 -5.3,5.1c-3.1,0 -5.3,-2.04 -5.3,-5.1l0,-7.24l3,0l0,7.24c0,1.44 0.86,2.32 2.3,2.32c1.48,0 2.3,-0.86 2.3,-2.32l0,-7.24zm14.476,2.82l0,2.92l2.8,0c0.92,0 1.46,-0.54 1.46,-1.46s-0.54,-1.46 -1.46,-1.46l-2.8,0zm4.54,4.9c0.56,0.76 1.12,1.52 1.7,2.26c0.56,0.74 1.12,1.5 1.68,2.26l-3.66,0c-0.72,-0.96 -1.42,-1.92 -2.12,-2.88c-0.7,-0.94 -1.42,-1.9 -2.14,-2.86l0,5.74l-3,0l0,-12.24l5.8,0c2.28,0 4.22,1.74 4.22,4.04c0,1.62 -1,3.04 -2.48,3.68zm11.016,-7.72l9.1,0l0,2.78l-6.1,0l0,1.96l4.9,0l0,2.78l-4.9,0l0,1.94l6.1,0l0,2.78l-9.1,0l0,-12.24zm21.476,12.24l-4.3,0l0,-12.24l4.3,0c3.74,0 6.3,2.44 6.3,6.12c0,3.78 -2.7,6.12 -6.3,6.12zm-1.3,-9.46l0,6.68l1.3,0c2.12,0 3.3,-1.34 3.3,-3.34c0,-0.46 -0.06,-0.88 -0.18,-1.3c-0.52,-1.46 -1.66,-2.04 -3.12,-2.04l-1.3,0zm19.356,7.84c0,1.02 -0.7,1.72 -1.72,1.72s-1.74,-0.68 -1.74,-1.72c0,-1.02 0.72,-1.74 1.74,-1.74c1.06,0 1.72,0.68 1.72,1.74zm18.892,1.32l0,-2.82c0.24,0.06 0.54,0.12 0.88,0.16c0.34,0.06 0.7,0.1 1.08,0.12s0.76,0.04 1.16,0.06s0.78,0.04 1.12,0.04c0.94,0 1.6,-0.06 2,-0.16c0.38,-0.1 0.58,-0.28 0.58,-0.56c0,-0.24 -0.18,-0.42 -0.36,-0.56c-0.66,-0.44 -1.44,-0.62 -2.22,-0.8c-2.2,-0.44 -4.22,-1.32 -4.22,-3.84c0,-2.98 2.82,-3.68 5.24,-3.68c1.34,0 2.7,0.14 4,0.46l0,2.82c-0.2,-0.06 -0.46,-0.1 -0.78,-0.16c-0.34,-0.04 -0.68,-0.08 -1.06,-0.12c-0.78,-0.08 -1.52,-0.12 -2.3,-0.12c-0.44,0 -1.36,0 -1.78,0.16c-0.28,0.1 -0.46,0.22 -0.46,0.54c0,0.16 0.04,0.3 0.12,0.42c0.08,0.14 0.22,0.24 0.4,0.34c0.54,0.3 1.24,0.48 1.84,0.62c0.5,0.12 1,0.26 1.52,0.4c1.76,0.48 2.92,1.46 2.92,3.34c0,3.1 -3.08,3.76 -5.56,3.76c-1.36,0 -2.78,-0.1 -4.12,-0.42zm27.336,-3.12l0,3.08c-1.24,0.34 -2.48,0.48 -3.76,0.48c-3.76,0 -6.28,-2.58 -6.28,-6.24c0,-3.76 2.62,-6.24 6.26,-6.24c1.26,0 2.58,0.1 3.78,0.48l0,3.08c-0.98,-0.48 -2.52,-0.66 -3.6,-0.66c-2.44,0 -3.44,1 -3.44,3.32c0,2.46 1.18,3.36 3.46,3.36c1.02,0 2.68,-0.16 3.58,-0.66zm15.696,0.94l-4.5,0l-0.88,2.48l-3.26,0l4.9,-12.24l3,0l4.9,12.24l-3.28,0l-0.88,-2.48zm-3.52,-2.78l2.54,0l-1.26,-3.56l-1.28,3.56zm24.376,2.48l0,2.78l-9.1,0l0,-12.24l3,0l0,9.46l6.1,0zm15.476,0.3l-4.5,0l-0.88,2.48l-3.26,0l4.9,-12.24l3,0l4.9,12.24l-3.28,0l-0.88,-2.48zm-3.52,-2.78l2.54,0l-1.26,-3.56l-1.28,3.56zm24.296,-1.02c0.88,0.62 1.4,1.54 1.4,2.62c0,2.08 -1.92,3.66 -3.92,3.66l-6.5,0l0,-12.24l6.1,0c1.6,0 2.92,0.86 3.62,2.28c0.2,0.46 0.3,0.92 0.3,1.4c0,0.9 -0.36,1.64 -1,2.28zm-6.02,-3.18l0,1.96l3.1,0c0.52,0 0.92,-0.5 0.92,-1c0,-0.52 -0.38,-0.96 -0.92,-0.96l-3.1,0zm0,4.74l0,1.94l3.5,0c0.54,0 0.92,-0.44 0.92,-0.96c0,-0.26 -0.1,-0.5 -0.28,-0.7c-0.18,-0.18 -0.4,-0.28 -0.64,-0.28l-3.5,0zm24.596,1.94l0,2.78l-9.1,0l0,-12.24l3,0l0,9.46l6.1,0zm7.896,-9.46l9.1,0l0,2.78l-6.1,0l0,1.96l4.9,0l0,2.78l-4.9,0l0,1.94l6.1,0l0,2.78l-9.1,0l0,-12.24zm20.696,10.62c0,1.02 -0.7,1.72 -1.72,1.72s-1.74,-0.68 -1.74,-1.72c0,-1.02 0.72,-1.74 1.74,-1.74c1.06,0 1.72,0.68 1.72,1.74zm18.892,1.32l0,-2.82c0.24,0.06 0.54,0.12 0.88,0.16c0.34,0.06 0.7,0.1 1.08,0.12s0.76,0.04 1.16,0.06s0.78,0.04 1.12,0.04c0.94,0 1.6,-0.06 2,-0.16c0.38,-0.1 0.58,-0.28 0.58,-0.56c0,-0.24 -0.18,-0.42 -0.36,-0.56c-0.66,-0.44 -1.44,-0.62 -2.22,-0.8c-2.2,-0.44 -4.22,-1.32 -4.22,-3.84c0,-2.98 2.82,-3.68 5.24,-3.68c1.34,0 2.7,0.14 4,0.46l0,2.82c-0.2,-0.06 -0.46,-0.1 -0.78,-0.16c-0.34,-0.04 -0.68,-0.08 -1.06,-0.12c-0.78,-0.08 -1.52,-0.12 -2.3,-0.12c-0.44,0 -1.36,0 -1.78,0.16c-0.28,0.1 -0.46,0.22 -0.46,0.54c0,0.16 0.04,0.3 0.12,0.42c0.08,0.14 0.22,0.24 0.4,0.34c0.54,0.3 1.24,0.48 1.84,0.62c0.5,0.12 1,0.26 1.52,0.4c1.76,0.48 2.92,1.46 2.92,3.34c0,3.1 -3.08,3.76 -5.56,3.76c-1.36,0 -2.78,-0.1 -4.12,-0.42zm25.156,-11.94l3,0l0,7.24c0,3.18 -2.28,5.1 -5.3,5.1c-3.1,0 -5.3,-2.04 -5.3,-5.1l0,-7.24l3,0l0,7.24c0,1.44 0.86,2.32 2.3,2.32c1.48,0 2.3,-0.86 2.3,-2.32l0,-7.24zm10.876,11.94l0,-2.82c0.24,0.06 0.54,0.12 0.88,0.16c0.34,0.06 0.7,0.1 1.08,0.12s0.76,0.04 1.16,0.06s0.78,0.04 1.12,0.04c0.94,0 1.6,-0.06 2,-0.16c0.38,-0.1 0.58,-0.28 0.58,-0.56c0,-0.24 -0.18,-0.42 -0.36,-0.56c-0.66,-0.44 -1.44,-0.62 -2.22,-0.8c-2.2,-0.44 -4.22,-1.32 -4.22,-3.84c0,-2.98 2.82,-3.68 5.24,-3.68c1.34,0 2.7,0.14 4,0.46l0,2.82c-0.2,-0.06 -0.46,-0.1 -0.78,-0.16c-0.34,-0.04 -0.68,-0.08 -1.06,-0.12c-0.78,-0.08 -1.52,-0.12 -2.3,-0.12c-0.44,0 -1.36,0 -1.78,0.16c-0.28,0.1 -0.46,0.22 -0.46,0.54c0,0.16 0.04,0.3 0.12,0.42c0.08,0.14 0.22,0.24 0.4,0.34c0.54,0.3 1.24,0.48 1.84,0.62c0.5,0.12 1,0.26 1.52,0.4c1.76,0.48 2.92,1.46 2.92,3.34c0,3.1 -3.08,3.76 -5.56,3.76c-1.36,0 -2.78,-0.1 -4.12,-0.42zm16.996,-11.94l10.2,0l0,2.78l-3.6,0l0,9.46l-3,0l0,-9.46l-3.6,0l0,-2.78zm25.716,9.76l-4.5,0l-0.88,2.48l-3.26,0l4.9,-12.24l3,0l4.9,12.24l-3.28,0l-0.88,-2.48zm-3.52,-2.78l2.54,0l-1.26,-3.56l-1.28,3.56zm15.256,-6.98l3,0l0,12.24l-3,0l0,-12.24zm19.436,0l3,0l0,12.24l-3,0l-4.8,-7.16l0,7.16l-3,0l0,-12.24l3,0l4.8,7.16l0,-7.16zm19.256,9.76l-4.5,0l-0.88,2.48l-3.26,0l4.9,-12.24l3,0l4.9,12.24l-3.28,0l-0.88,-2.48zm-3.52,-2.78l2.54,0l-1.26,-3.56l-1.28,3.56zm24.296,-1.02c0.88,0.62 1.4,1.54 1.4,2.62c0,2.08 -1.92,3.66 -3.92,3.66l-6.5,0l0,-12.24l6.1,0c1.6,0 2.92,0.86 3.62,2.28c0.2,0.46 0.3,0.92 0.3,1.4c0,0.9 -0.36,1.64 -1,2.28zm-6.02,-3.18l0,1.96l3.1,0c0.52,0 0.92,-0.5 0.92,-1c0,-0.52 -0.38,-0.96 -0.92,-0.96l-3.1,0zm0,4.74l0,1.94l3.5,0c0.54,0 0.92,-0.44 0.92,-0.96c0,-0.26 -0.1,-0.5 -0.28,-0.7c-0.18,-0.18 -0.4,-0.28 -0.64,-0.28l-3.5,0zm24.596,1.94l0,2.78l-9.1,0l0,-12.24l3,0l0,9.46l6.1,0zm7.896,-9.46l9.1,0l0,2.78l-6.1,0l0,1.96l4.9,0l0,2.78l-4.9,0l0,1.94l6.1,0l0,2.78l-9.1,0l0,-12.24zm20.696,10.62c0,1.02 -0.7,1.72 -1.72,1.72s-1.74,-0.68 -1.74,-1.72c0,-1.02 0.72,-1.74 1.74,-1.74c1.06,0 1.72,0.68 1.72,1.74z" id="svg_9"/>
    </g>
   </g>
  </g>
 </g>

</svg>